<svg class="svg-icon" style="width: 1em; height: 1em;vertical-align: middle;fill: currentColor;overflow: hidden;" viewBox="0 0 1024 1024" version="1.1" xmlns="http://www.w3.org/2000/svg"><path d="M474.6 246.7H592V452H474.6zM722.3 596.9C720 536.5 642.5 488 547.2 488s-172.8 48.5-175.1 108.9h350.2zM665.8 192.5H389.2c-9.9 0-18-8.1-18-18s8.1-18 18-18h276.6c9.9 0 18 8.1 18 18s-8.1 18-18 18z" fill="#25B195" /><path d="M658.2 206.5H359.9c-25.8 0-46.9-21-46.9-46.9s21-46.9 46.9-46.9h298.4c25.8 0 46.9 21 46.9 46.9s-21.1 46.9-47 46.9z m-298.3-63.6c-9.2 0-16.7 7.5-16.7 16.7s7.5 16.7 16.7 16.7h298.4c9.2 0 16.7-7.5 16.7-16.7s-7.5-16.7-16.7-16.7H359.9zM512.3 909l-46.6-303.6h86.7z" fill="#4E4D4D" /><path d="M667.8 484.8c-17.2-13.1-36.6-23.9-57.6-32H407.9c-21 8.2-40.4 18.9-57.6 32-21.3 16.3-38.2 35.4-50.1 56.9-12.7 23-19.2 47.6-19.2 73.1v17.9h456.1v-17.9c0-25.5-6.5-50.1-19.2-73.1-11.9-21.5-28.7-40.6-50.1-56.9zM312.7 596.9c5.3-30.6 24-59.2 53.9-82.1C404.5 485.9 455 470 509.1 470c54 0 104.6 15.9 142.4 44.8 30 22.9 48.7 51.6 53.9 82.1H312.7z" fill="#4E4D4D" /><path d="M607 468H409V181h198v287z m-161.6-35.5h125.1v-216H445.4v216z" fill="#4E4D4D" /></svg>